<svg width="13" height="18" viewBox="0 0 13 18" fill="none" xmlns="http://www.w3.org/2000/svg">
<path d="M3.92321 0.837695L3.71429 1.3125H0.928571C0.414955 1.3125 0 1.7873 0 2.375C0 2.9627 0.414955 3.4375 0.928571 3.4375H12.0714C12.585 3.4375 13 2.9627 13 2.375C13 1.7873 12.585 1.3125 12.0714 1.3125H9.28571L9.07679 0.837695C8.92009 0.475781 8.59799 0.25 8.24687 0.25H4.75313C4.40201 0.25 4.07991 0.475781 3.92321 0.837695ZM12.0714 4.5H0.928571L1.54375 15.7559C1.59018 16.5959 2.19955 17.25 2.93371 17.25H10.0663C10.8004 17.25 11.4098 16.5959 11.4562 15.7559L12.0714 4.5Z" fill="#F5F6FF"/>
</svg>
